<svg width="414" height="171" viewBox="0 0 414 171" fill="none" xmlns="http://www.w3.org/2000/svg">
<path d="M62.208 106.104L43.776 60.344C43.136 58.8507 42.5173 57.0587 41.92 54.968C41.664 55.992 41.3867 56.9733 41.088 57.912C40.7893 58.808 40.4693 59.64 40.128 60.408L21.696 106.104H62.208ZM82.24 139H77.184C76.5867 139 76.096 138.851 75.712 138.552C75.328 138.211 75.0293 137.784 74.816 137.272L64.192 110.968H19.712L9.088 137.272C8.91733 137.741 8.61867 138.147 8.192 138.488C7.76533 138.829 7.25333 139 6.656 139H1.664L38.72 48.44H45.184L82.24 139ZM99.695 86.456C102.639 82.7867 106.031 79.8427 109.871 77.624C113.754 75.4053 118.063 74.296 122.799 74.296C126.298 74.296 129.37 74.8507 132.015 75.96C134.703 77.0693 136.922 78.6693 138.671 80.76C140.42 82.8507 141.743 85.368 142.639 88.312C143.535 91.256 143.983 94.584 143.983 98.296V139H137.839V98.296C137.839 92.3227 136.474 87.6507 133.743 84.28C131.012 80.8667 126.852 79.16 121.263 79.16C117.124 79.16 113.242 80.2267 109.615 82.36C106.031 84.4507 102.831 87.3733 100.015 91.128V139H93.871V75.32H97.263C98.3297 75.32 98.9483 75.8533 99.119 76.92L99.695 86.456ZM171.03 75.32V139H164.95V75.32H171.03ZM173.654 53.368C173.654 54.136 173.483 54.8613 173.142 55.544C172.843 56.184 172.438 56.76 171.926 57.272C171.414 57.784 170.817 58.1893 170.134 58.488C169.451 58.7867 168.726 58.936 167.958 58.936C167.19 58.936 166.465 58.7867 165.782 58.488C165.099 58.1893 164.502 57.784 163.99 57.272C163.478 56.76 163.073 56.184 162.774 55.544C162.475 54.8613 162.326 54.136 162.326 53.368C162.326 52.6 162.475 51.8747 162.774 51.192C163.073 50.4667 163.478 49.848 163.99 49.336C164.502 48.824 165.099 48.4187 165.782 48.12C166.465 47.8213 167.19 47.672 167.958 47.672C168.726 47.672 169.451 47.8213 170.134 48.12C170.817 48.4187 171.414 48.824 171.926 49.336C172.438 49.848 172.843 50.4667 173.142 51.192C173.483 51.8747 173.654 52.6 173.654 53.368Z" fill="white"/>
<path d="M268.568 63.048V81.992C270.446 79.176 272.92 77 275.992 75.464C279.15 73.8427 282.819 73.032 287 73.032C292.291 73.032 296.899 74.3547 300.824 77C304.75 79.56 307.736 83.0587 309.784 87.496C311.832 91.9333 312.856 96.8827 312.856 102.344C312.856 108.403 311.704 113.651 309.4 118.088C307.182 122.44 304.067 125.768 300.056 128.072C296.131 130.376 291.608 131.528 286.488 131.528C283.416 131.528 280.515 131.187 277.784 130.504V114.76C278.723 115.016 279.79 115.144 280.984 115.144C284.398 115.144 287.171 114.077 289.304 111.944C291.438 109.725 292.504 106.696 292.504 102.856C292.504 99.1867 291.395 96.1573 289.176 93.768C287.043 91.3787 284.184 90.184 280.6 90.184C276.675 90.184 273.688 91.5067 271.64 94.152C269.592 96.7973 268.568 100.125 268.568 104.136V141H249.24V123.208C247.278 126.195 244.59 128.541 241.176 130.248C237.763 131.955 233.795 132.808 229.272 132.808C223.982 132.808 219.331 131.571 215.32 129.096C211.31 126.536 208.238 122.995 206.104 118.472C203.971 113.864 202.904 108.659 202.904 102.856C202.904 93.896 205.336 86.6853 210.2 81.224C215.064 75.7627 221.678 73.032 230.04 73.032C234.478 73.032 238.318 73.8427 241.56 75.464C244.803 77 247.363 79.176 249.24 81.992V63.048H193.944V46.28H321.816V63.048H268.568ZM236.184 115.912C240.195 115.912 243.352 114.632 245.656 112.072C248.046 109.427 249.24 106.355 249.24 102.856C249.24 99.3573 248.088 96.3707 245.784 93.896C243.48 91.336 240.323 90.056 236.312 90.056C232.558 90.056 229.443 91.2507 226.968 93.64C224.494 96.0293 223.256 99.144 223.256 102.984C223.256 106.909 224.451 110.067 226.84 112.456C229.23 114.76 232.344 115.912 236.184 115.912ZM249.68 46.92C246.182 41.4587 243.366 37.5333 241.232 35.144C239.099 32.7547 236.923 31.176 234.704 30.408C232.4 29.5547 229.243 29.128 225.232 29.128H218.576V13H224.848C232.016 13.0853 237.691 13.896 241.872 15.432C246.054 16.8827 250.15 19.9547 254.16 24.648C258.086 29.256 262.864 36.68 268.496 46.92H249.68ZM412.42 63.048H399.876V141H379.78V95.304H363.78C358.575 95.304 354.436 96.584 351.364 99.144C348.292 101.704 346.756 105.331 346.756 110.024C346.756 114.717 348.079 118.387 350.724 121.032C353.455 123.677 357.466 125 362.756 125H365.188V140.872H359.684C349.871 140.872 341.85 138.269 335.62 133.064C329.476 127.859 326.404 120.051 326.404 109.64C326.404 99.144 329.775 91.2507 336.516 85.96C343.343 80.6693 352.09 78.024 362.756 78.024H379.78V63.048H317.444V46.28H412.42V63.048Z" fill="white"/>
</svg>
